<?xml version="1.0" standalone="no"?>
<!DOCTYPE svg PUBLIC "-//W3C//DTD SVG 20010904//EN"
 "http://www.w3.org/TR/2001/REC-SVG-20010904/DTD/svg10.dtd">
<svg version="1.0" xmlns="http://www.w3.org/2000/svg"
 width="500.000000pt" height="500.000000pt" viewBox="0 0 500.000000 500.000000"
 preserveAspectRatio="xMidYMid meet">
<metadata>
Created by potrace 1.11, written by Peter Selinger 2001-2013
</metadata>
<g transform="translate(0.000000,500.000000) scale(0.100000,-0.100000)"
fill="#000000" stroke="none">
<path d="M2219 4986 c-2 -2 -26 -6 -54 -10 -168 -20 -407 -117 -590 -239 -208
-139 -445 -369 -619 -599 -41 -54 -73 -86 -109 -106 -176 -99 -291 -255 -324
-437 -9 -53 -9 -217 1 -283 9 -61 44 -184 74 -257 l20 -50 -55 -60 c-141 -153
-217 -329 -225 -520 l-3 -69 -45 -4 c-107 -9 -131 -53 -101 -183 11 -47 22
-96 24 -109 3 -14 10 -45 17 -70 7 -25 14 -56 17 -70 2 -14 20 -92 40 -175 38
-158 60 -256 93 -395 11 -47 42 -182 70 -300 28 -118 76 -323 106 -455 59
-256 83 -322 141 -394 73 -90 144 -138 257 -172 58 -18 127 -19 1547 -19 1328
0 1492 2 1540 16 139 41 253 135 314 258 19 39 36 82 39 96 5 30 36 161 112
480 30 129 57 246 60 260 3 14 21 90 40 169 19 79 36 153 38 165 2 11 9 41 15
66 7 25 14 56 17 70 3 14 19 81 35 150 17 69 41 170 54 225 13 55 26 111 29
125 3 14 13 57 21 97 14 64 14 75 1 107 -20 47 -44 55 -167 57 l-101 1 8 27
c14 48 13 277 -1 330 -31 118 -106 225 -193 276 -37 22 -35 18 -62 157 -28
147 -59 242 -119 373 -160 344 -432 530 -905 620 -45 8 -92 17 -106 20 -14 3
-61 12 -105 21 -44 8 -84 16 -90 18 -5 1 -28 6 -50 10 -55 11 -181 54 -224 77
-84 44 -129 111 -135 197 -5 74 48 220 115 313 28 40 25 102 -6 134 -14 14
-30 26 -35 26 -6 1 -13 2 -17 4 -32 8 -62 16 -88 21 -31 7 -310 15 -316 10z"/>
</g>
</svg>
